<?xml version="1.0" encoding="UTF-8"?>
<svg width="55px" height="45px" viewBox="0 0 55 45" version="1.1" xmlns="http://www.w3.org/2000/svg" xmlns:xlink="http://www.w3.org/1999/xlink">
    <!-- Generator: Sketch 42 (36781) - http://www.bohemiancoding.com/sketch -->
    <title>disconnected_icon</title>
    <desc>Created with Sketch.</desc>
    <defs></defs>
    <g id="Screens" stroke="none" stroke-width="1" fill="none" fill-rule="evenodd">
        <g id="No-internet-connection" transform="translate(-160.000000, -283.000000)" fill-rule="nonzero" fill="#999999">
            <path d="M194.493927,292.959514 C192.186235,292.412955 189.757085,292.17004 187.327935,292.17004 C178.157895,292.17004 169.595142,295.753036 163.097166,302.190283 C162.42915,302.919028 161.275304,302.919028 160.546559,302.190283 C159.817814,301.522267 159.817814,300.368421 160.546559,299.639676 C167.712551,292.473684 177.186235,288.526316 187.327935,288.526316 C190.850202,288.526316 194.251012,289.012146 197.530364,289.923077 L194.493927,292.959514 Z M214.109312,299.639676 C214.838057,300.368421 214.838057,301.522267 214.109312,302.190283 C213.744939,302.554656 213.259109,302.736842 212.834008,302.736842 C212.408907,302.736842 211.923077,302.554656 211.558704,302.190283 C209.129555,299.761134 206.336032,297.696356 203.360324,296.117409 L206.032389,293.445344 C208.947368,295.145749 211.680162,297.210526 214.109312,299.639676 Z M198.805668,300.672065 C201.842105,302.068826 204.574899,303.951417 207.004049,306.380567 C207.732794,307.048583 207.732794,308.202429 207.004049,308.931174 C206.639676,309.295547 206.153846,309.477733 205.728745,309.477733 C205.303644,309.477733 204.817814,309.295547 204.453441,308.931174 C202.024291,306.502024 199.109312,304.680162 196.012146,303.465587 L198.805668,300.672065 Z M167.651822,306.380567 C172.935223,301.157895 179.919028,298.242915 187.327935,298.242915 C187.935223,298.242915 188.54251,298.242915 189.149798,298.303644 L185.506073,301.947368 C179.736842,302.37247 174.331984,304.801619 170.202429,308.931174 C169.534413,309.659919 168.380567,309.659919 167.651822,308.931174 C166.923077,308.263158 166.923077,307.109312 167.651822,306.380567 Z M191.032389,308.445344 C194.554656,309.174089 197.834008,310.935223 200.445344,313.546559 C201.174089,314.214575 201.174089,315.368421 200.445344,316.097166 C200.080972,316.461538 199.595142,316.643725 199.17004,316.643725 C198.744939,316.643725 198.259109,316.461538 197.894737,316.097166 C195.161943,313.364372 191.639676,311.846154 187.753036,311.724696 L191.032389,308.445344 Z M187.267206,317.979757 C189.635628,317.979757 191.821862,318.890688 193.461538,320.530364 C193.947368,321.016194 193.947368,321.744939 193.461538,322.230769 L188.117409,327.574899 C187.874494,327.817814 187.57085,327.939271 187.267206,327.939271 C186.963563,327.939271 186.659919,327.817814 186.417004,327.574899 L181.072874,322.230769 C180.587045,321.744939 180.587045,321.016194 181.072874,320.530364 C182.712551,318.890688 184.959514,317.979757 187.267206,317.979757 Z M209.919028,283.546559 C210.647773,284.275304 210.647773,285.42915 209.919028,286.097166 L168.562753,327.453441 C168.198381,327.817814 167.773279,328 167.287449,328 C166.801619,328 166.376518,327.817814 166.012146,327.453441 C165.283401,326.724696 165.283401,325.57085 166.012146,324.902834 L207.368421,283.546559 C208.097166,282.817814 209.251012,282.817814 209.919028,283.546559 Z" id="disconnected_icon"></path>
        </g>
    </g>
</svg>